# xmcd CD database file
#
# Track frame offsets:
#	150
#	14167
#	28648
#	46300
#	60493
#	77385
#	90670
#	105238
#	122863
#	132876
#	151475
#	163871
#
# Disc length: 2358 seconds
#
# Revision: 1
# Processed by: cddbd v1.5.2PL0 Copyright (c) Steve Scherf et al.
# Submitted via: CDex 1.51
#
DISCID=9009340c
DTITLE=Jean Chartron - Blues Bleus
DYEAR=2008
DGENRE=Blues
TTITLE0=Baby Please Don't Go
TTITLE1=Sad, Sad Day
TTITLE2=Appelle-Moi
TTITLE3=Little Hobo
TTITLE4=Chercher Toujours
TTITLE5=La Croisee Des Chemins
TTITLE6=Good Morning Little Schoolgirl
TTITLE7=Michel C.
TTITLE8=Rambling On My Mind
TTITLE9=Prier Pour Toi
TTITLE10=Stand By Me
TTITLE11=A Ma Mere
EXTD=YEAR: 2008
EXTT0=
EXTT1=
EXTT2=
EXTT3=
EXTT4=
EXTT5=
EXTT6=
EXTT7=
EXTT8=
EXTT9=
EXTT10=
EXTT11=
PLAYORDER=
